<svg preserveAspectRatio="none" width="100%" height="100%" overflow="visible" style="display: block;" viewBox="0 0 27.5076 22.6243" fill="none" xmlns="http://www.w3.org/2000/svg">
<path id="Vector" d="M10.0144 0.0461286C10.33 0.0437207 10.6454 0.0375824 10.961 0.0314119C11.1619 0.0299955 11.3627 0.0288045 11.5636 0.0278608C11.8378 0.0248015 11.8378 0.0248015 12.1175 0.0216804C12.5874 0.0874106 12.5874 0.0874106 12.9088 0.313796C13.1964 0.71614 13.3446 1.09132 13.5047 1.55977C13.5362 1.65048 13.5678 1.7412 13.6002 1.83466C13.7041 2.13461 13.8057 2.43529 13.9073 2.73601C13.9801 2.9474 14.0531 3.15872 14.1262 3.36999C14.2805 3.81634 14.434 4.26296 14.587 4.70976C14.942 5.74446 15.3066 6.77581 15.6702 7.80748C15.8548 8.33147 16.0387 8.85571 16.2227 9.37991C16.6412 10.572 17.0617 11.7633 17.4825 12.9545C17.776 12.5143 17.926 12.1216 18.1037 11.6237C18.1372 11.5303 18.1707 11.4369 18.2053 11.3407C18.2786 11.1361 18.3518 10.9313 18.4247 10.7265C18.5418 10.3977 18.6597 10.0692 18.7778 9.7407C19.1501 8.70497 19.5205 7.66859 19.8896 6.63174C20.1556 5.88489 20.4226 5.13842 20.6901 4.39216C20.795 4.09906 20.8994 3.80581 21.0033 3.5124C21.1502 3.0977 21.2986 2.68353 21.4472 2.26945C21.4906 2.14596 21.5339 2.02247 21.5786 1.89524C22.0521 0.585939 22.0521 0.585939 22.5175 0.0874106C22.9321 0.0104018 23.2308 -0.0116721 23.6429 0.00546129C23.7508 0.00664865 23.8586 0.00783602 23.9698 0.00905937C24.3134 0.0137472 24.6565 0.0242737 25 0.034963C25.2333 0.0391731 25.4666 0.0430019 25.6998 0.0464359C26.2709 0.0556751 26.8417 0.0701507 27.4126 0.0874106C27.6261 0.748811 27.4452 1.2308 27.2104 1.85478C27.1717 1.96193 27.133 2.06908 27.0932 2.17948C26.9623 2.54043 26.829 2.90042 26.6958 3.26049C26.6012 3.52014 26.5067 3.77985 26.4124 4.03962C26.2058 4.60785 25.9983 5.17571 25.7901 5.74335C25.4418 6.69406 25.0977 7.64624 24.7542 8.59866C24.0742 10.4829 23.3914 12.366 22.7076 14.2489C22.5154 14.7786 22.3233 15.3083 22.1313 15.8381C21.8211 16.6939 21.5103 17.5495 21.199 18.4049C21.0822 18.7264 20.9655 19.048 20.8489 19.3696C20.6883 19.8128 20.527 20.2558 20.3655 20.6988C20.3181 20.8299 20.2708 20.9611 20.222 21.0962C20.1782 21.2159 20.1344 21.3356 20.0892 21.4589C20.0326 21.6146 20.0326 21.6146 19.9749 21.7735C19.8601 22.0455 19.8601 22.0455 19.5804 22.465C19.0297 22.5621 18.4691 22.5363 17.9108 22.535C17.7555 22.5389 17.6002 22.5429 17.4402 22.547C17.2913 22.5473 17.1425 22.5477 16.9892 22.5481C16.8525 22.5491 16.7159 22.5501 16.5751 22.5511C16.2238 22.465 16.2238 22.465 15.9793 22.1442C15.8376 21.8379 15.7042 21.5403 15.5944 21.2216C15.5425 21.0726 15.5425 21.0726 15.4895 20.9206C15.4549 20.8187 15.4203 20.7168 15.3846 20.6119C15.35 20.5122 15.3154 20.4125 15.2797 20.3098C15.029 19.5849 14.788 18.857 14.5455 18.1294C10.3916 18.0601 10.3916 18.0601 6.15385 17.9895C6.06154 18.4049 5.96923 18.8203 5.87413 19.2482C5.79052 19.5239 5.70206 19.7981 5.60697 20.0699C5.55802 20.2104 5.50907 20.3508 5.45864 20.4955C5.40825 20.6378 5.35786 20.78 5.30594 20.9266C5.25501 21.0731 5.20408 21.2197 5.15161 21.3707C4.7744 22.4459 4.7744 22.4459 4.61538 22.6049C4.28476 22.619 3.95831 22.6244 3.62762 22.6235C3.52881 22.6236 3.43 22.6237 3.3282 22.6239C3.11892 22.624 2.90964 22.6237 2.70037 22.6231C2.37898 22.6224 2.05762 22.6231 1.73623 22.624C1.53336 22.6239 1.33049 22.6237 1.12762 22.6235C0.982518 22.6239 0.982518 22.6239 0.834483 22.6243C0.155937 22.621 0.155937 22.621 0 22.465C0.0560306 21.494 0.353801 20.6531 0.686735 19.7449C0.770429 19.5122 0.770429 19.5122 0.855813 19.2748C1.0386 18.7673 1.22297 18.2604 1.40734 17.7535C1.53549 17.399 1.66326 17.0443 1.791 16.6897C1.98549 16.1499 2.18007 15.6101 2.37521 15.0706C2.9083 13.5965 3.43354 12.1198 3.95639 10.6421C4.71599 8.49694 5.48312 6.35445 6.25808 4.21477C6.3565 3.94288 6.45477 3.67094 6.55285 3.39893C6.68831 3.02352 6.82444 2.64836 6.96077 2.27327C7.00044 2.163 7.04011 2.05273 7.08099 1.93912C7.73224 0.155457 8.16359 0.0559798 10.0144 0.0461286Z" fill="var(--fill-0, #010101)"/>
</svg>
